<svg xmlns="http://www.w3.org/2000/svg" xmlns:xlink="http://www.w3.org/1999/xlink" version="1.1" x="0px" y="0px" viewBox="0 0 100 125" enable-background="new 0 0 100 100" xml:space="preserve"><path fill="#000000" stroke="#000000" stroke-width="2" stroke-miterlimit="10" d="M54.831,10.787"/><path d="M84.35,30.938c-0.96-1.095-2.543-1.243-3.966-1.243h-0.08l-0.079,0.006l-19.887,1.55c-0.923,0.085-1.733,0.51-2.308,1.202  c-0.574,0.691-0.846,1.564-0.763,2.459l2.178,23.886c0.165,1.748,1.605,3.061,3.353,3.061c0.102,0,0.202-0.004,0.305-0.013  l16.976-1.554c0.886-0.077,1.697-0.499,2.273-1.188c0.532-0.636,0.808-1.43,0.783-2.251l1.839-23.049l0.013-0.169l-0.005-0.057  l0.012-0.091C85.055,33.015,85.201,31.911,84.35,30.938z M81.883,46.734l-2.576,0.239l0.282-6.434l2.808-0.261L81.883,46.734z   M60.008,42.358l3.08-0.286l0.268,6.384l-2.768,0.257L60.008,42.358z M74.786,40.985l2.739-0.254l-0.282,6.435l-2.636,0.245  L74.786,40.985z M69.983,39.369l-0.008-6.809l2.995-0.234l-0.188,6.782L69.983,39.369z M72.726,41.176l-0.179,6.425l-2.555,0.237  l-0.006-6.408L72.726,41.176z M67.939,48.03l-2.537,0.235l-0.268-6.383l2.798-0.26L67.939,48.03z M67.931,39.56l-2.882,0.268  l-0.288-6.861l3.162-0.247L67.931,39.56z M65.488,50.32l2.453-0.228l0.01,9.248l-2.077,0.189L65.488,50.32z M69.995,49.9  l2.494-0.231l-0.259,9.279l-2.227,0.204L69.995,49.9z M74.549,49.478l2.604-0.242l-0.406,9.3l-2.456,0.225L74.549,49.478z   M74.843,38.917l0.188-6.731l-0.189-0.005l3.068-0.239l-0.294,6.717L74.843,38.917z M80.384,31.75c3.041,0,2.614,0.949,2.55,1.666  c-0.008,0.08-0.014,0.155-0.007,0.225l-0.364,4.56l-2.884,0.268l0.291-6.649l-0.312-0.013L80.384,31.75z M60.498,33.299l2.216-0.172  l0.287,6.892l-3.18,0.295l-0.51-5.589C59.245,34.003,59.775,33.365,60.498,33.299z M62.918,59.8c-0.04,0.004-0.08,0.005-0.12,0.005  c-0.672,0-1.243-0.51-1.308-1.193l-0.716-7.854l2.667-0.248l0.385,9.207L62.918,59.8z M79.891,58.248l-1.08,0.099l0.406-9.303  l2.499-0.233l-0.639,8.013C81.143,57.545,80.613,58.185,79.891,58.248z"/><path d="M75.547,72.281l-0.059-0.378l-0.587-6.493l2.839-0.143l-0.104-2.052L63.8,63.917c-3.676,0.333-6.915-2.161-7.226-5.561  l-0.033-0.365l0.005-0.001l-2.608-28.189l6.673-0.57c0.629-0.058,1.075-0.875,0.993-1.832c-0.08-0.957-0.658-1.686-1.289-1.633  l-6.697,0.574l-0.341-3.68l-0.786-8.628h0.005l-0.077-0.856c-0.39-4.262-4.171-7.461-8.582-7.461c-0.276,0-0.555,0.013-0.834,0.038  l-6.339,0.321c-0.209-0.836-0.785-1.421-1.409-1.363L22.431,5.879c-0.724,0.062-1.23,0.97-1.132,2.019l0.078,0.893  c0.096,1.049,0.758,1.848,1.482,1.782l12.824-1.169c0.543-0.048,0.965-0.573,1.1-1.278l6.365-0.322  c3.676-0.334,6.915,2.161,7.225,5.56l0.033,0.366l-0.005,0.001l1.183,12.786l-7.264,0.622c-0.63,0.052-1.076,0.873-0.993,1.828  c0.08,0.957,0.66,1.688,1.29,1.634l7.287-0.623l0.806,8.708L29.109,70.873c-1.793-0.954-3.835-1.5-6.003-1.5  c-7.074,0-12.828,5.755-12.828,12.83c0,7.073,5.754,12.826,12.828,12.826c7.073,0,12.827-5.753,12.827-12.826  c0-4.169-2.007-7.869-5.096-10.214l14.111-19.246h9.058l0.451,4.942h-0.006l0.078,0.856c0.39,4.262,4.171,7.461,8.581,7.461  c0.276,0,0.555-0.013,0.835-0.038l8.903-0.45l0.488,5.313c-1.771-0.925-3.779-1.455-5.911-1.455c-7.073,0-12.828,5.755-12.828,12.83  c0,7.073,5.755,12.826,12.828,12.826s12.827-5.753,12.827-12.826C80.253,78.209,78.417,74.636,75.547,72.281z M33.879,82.203  c0,5.939-4.833,10.772-10.773,10.772c-5.941,0-10.775-4.833-10.775-10.772c0-5.941,4.834-10.776,10.775-10.776  c1.714,0,3.33,0.413,4.77,1.128l-6.629,9.042l1.657,1.213l6.721-9.167C32.205,75.613,33.879,78.713,33.879,82.203z M46.453,50.689  l6.542-8.921l0.675,7.29l0.148,1.631H46.453z M67.426,92.976c-5.94,0-10.774-4.833-10.774-10.772  c0-5.941,4.834-10.776,10.774-10.776c1.958,0,3.788,0.533,5.372,1.448l-6.692,8.607l1.576,1.315l7.07-8.474  c2.115,1.97,3.448,4.768,3.448,7.879C78.2,88.143,73.367,92.976,67.426,92.976z"/><text x="0" y="115" fill="#000000" font-size="5px" font-weight="bold" font-family="'Helvetica Neue', Helvetica, Arial-Unicode, Arial, Sans-serif">Created by Eline Burggraaf</text><text x="0" y="120" fill="#000000" font-size="5px" font-weight="bold" font-family="'Helvetica Neue', Helvetica, Arial-Unicode, Arial, Sans-serif">from the Noun Project</text></svg>